<svg width="16" height="16" viewBox="0 0 16 16" fill="none" xmlns="http://www.w3.org/2000/svg">
<path d="M7.23166 2.24901C6.87322 2.08106 6.45869 2.08106 6.10024 2.24901C5.81827 2.38112 5.64352 2.61708 5.52555 2.80254C5.40665 2.98945 5.2799 3.23574 5.13815 3.51115L4.33035 5.08047C4.30187 5.1358 4.28778 5.16299 4.27691 5.18246L4.27614 5.18383L4.27481 5.18467C4.25592 5.19652 4.22948 5.21198 4.17568 5.24324L2.5605 6.18183C2.32075 6.32112 2.10263 6.44784 1.93612 6.56619C1.76662 6.68665 1.55885 6.8596 1.44084 7.12545C1.28795 7.46988 1.28795 7.86292 1.44084 8.20735C1.55885 8.4732 1.76662 8.64615 1.93612 8.76661C2.10263 8.88495 2.32073 9.01167 2.56048 9.15096L4.17568 10.0896C4.22948 10.1208 4.25592 10.1363 4.27481 10.1481L4.27614 10.149L4.27691 10.1503C4.28778 10.1698 4.30187 10.197 4.33035 10.2523L5.13815 11.8217C5.2799 12.0971 5.40666 12.3434 5.52555 12.5303C5.64352 12.7157 5.81827 12.9517 6.10024 13.0838C6.45869 13.2517 6.87322 13.2517 7.23166 13.0838C7.51364 12.9517 7.68839 12.7157 7.80636 12.5303C7.92525 12.3434 8.05201 12.0971 8.19376 11.8216L9.00155 10.2523C9.03004 10.197 9.04413 10.1698 9.05499 10.1503L9.05576 10.149L9.0571 10.1481C9.07599 10.1363 9.10242 10.1208 9.15623 10.0896L10.7714 9.15096C11.0112 9.01167 11.2293 8.88495 11.3958 8.76661C11.5653 8.64615 11.7731 8.4732 11.8911 8.20735C12.044 7.86292 12.044 7.46988 11.8911 7.12545C11.7731 6.8596 11.5653 6.68665 11.3958 6.56619C11.2293 6.44784 11.0112 6.32112 10.7714 6.18183L9.15623 5.24324C9.10242 5.21198 9.07599 5.19652 9.0571 5.18467L9.05576 5.18383L9.05499 5.18246C9.04413 5.16299 9.03004 5.1358 9.00155 5.08047L8.19375 3.51115C8.05201 3.23573 7.92525 2.98945 7.80636 2.80254C7.68839 2.61708 7.51364 2.38112 7.23166 2.24901Z" fill="white"/>
<path d="M13.0488 10.0749C12.8022 9.97469 12.5297 9.97469 12.2831 10.0749C12.1033 10.1479 11.9792 10.2652 11.9 10.3493C11.8265 10.4272 11.7481 10.5253 11.674 10.618L11.1184 11.3125C11.1069 11.3269 11.0948 11.3418 11.0822 11.3573C10.9534 11.5166 10.7776 11.7337 10.7083 12.0003C10.6518 12.2176 10.6518 12.4486 10.7083 12.6658C10.7776 12.9324 10.9534 13.1496 11.0822 13.3088C11.0948 13.3243 11.1069 13.3392 11.1184 13.3536L11.6739 14.0481C11.748 14.1407 11.8265 14.2389 11.9 14.3169C11.9792 14.4009 12.1033 14.5182 12.2831 14.5913C12.5297 14.6914 12.8022 14.6914 13.0488 14.5913C13.2286 14.5182 13.3527 14.4009 13.4319 14.3169C13.5054 14.2389 13.5839 14.1408 13.658 14.0481L14.2135 13.3536C14.225 13.3392 14.2371 13.3243 14.2497 13.3088C14.3785 13.1496 14.5543 12.9324 14.6236 12.6658C14.6801 12.4486 14.6801 12.2176 14.6236 12.0003C14.5543 11.7337 14.3785 11.5165 14.2497 11.3573C14.2371 11.3418 14.225 11.3269 14.2135 11.3125L13.658 10.618C13.5839 10.5254 13.5054 10.4272 13.4319 10.3493C13.3527 10.2652 13.2286 10.1479 13.0488 10.0749Z" fill="white"/>
</svg>
