<svg xmlns="http://www.w3.org/2000/svg" width="260" height="136" fill="none" xmlns:v="https://vecta.io/nano"><path d="M8.801 133c-4.861 0-8.832-3.945-8.503-8.794a130 130 0 0 1 38.923-84.261A130 130 0 0 1 124.419 3.12c4.856-.209 8.701 3.859 8.581 8.718h0c-.12 4.859-4.162 8.665-9.016 8.925a112.4 112.4 0 0 0-72.472 31.782c-10.733 10.471-19.263 22.983-25.086 36.8a112.4 112.4 0 0 0-8.48 34.863c-.38 4.846-4.285 8.792-9.145 8.792h0z" fill="#f04438"/><path d="M206.613 39.087c3.073-3.766 8.64-4.35 12.19-1.03 10.508 9.829 19.313 21.335 26.052 34.047 2.277 4.294.259 9.516-4.18 11.497h0c-4.439 1.981-9.613-.031-11.935-4.301a112.38 112.38 0 0 0-21.095-27.569c-3.514-3.358-4.104-8.878-1.032-12.644h0z" fill="#f2c111"/><path d="M139.954 12.211c.399-4.844 4.657-8.478 9.463-7.752 17.031 2.572 33.382 8.504 48.1 17.45 4.154 2.524 5.091 8.043 2.292 12.016h0c-2.8 3.973-8.275 4.892-12.455 2.412-12.117-7.19-25.48-12.037-39.388-14.289-4.799-.777-8.411-4.992-8.012-9.837h0z" fill="#f58f0a"/><path d="M244.006 91.868c4.572-1.65 9.647.713 10.983 5.387a130.01 130.01 0 0 1 4.707 26.859c.332 4.849-3.636 8.797-8.497 8.8h0c-4.861.004-8.768-3.94-9.152-8.786-.559-7.061-1.784-14.055-3.66-20.886-1.287-4.687 1.047-9.724 5.619-11.374h0z" fill="#12b76a"/></svg>