<svg xmlns="http://www.w3.org/2000/svg" width="40" height="40" fill="none" xmlns:v="https://vecta.io/nano"><rect width="40" height="40" rx="8" fill="#f6f0ff"/><path fill-rule="evenodd" d="M12.913 10.658c2.075-.269 4.19-.408 6.337-.408s4.262.139 6.337.408c2.008.261 3.413 2.008 3.413 3.979v1.386c.911.51 1.5 1.493 1.5 2.585v4.286c0 1.508-1.128 2.815-2.669 2.94l-.331.026v2.39a.75.75 0 0 1-1.28.53l-2.781-2.781-3.769-.165c-.201-.016-.397-.053-.584-.109L15.28 29.53A.75.75 0 0 1 14 29v-4.029l-1.087-.129c-2.008-.261-3.413-2.008-3.413-3.979v-6.225c0-1.971 1.405-3.718 3.413-3.979zm4.868 14.25c-.489-.533-.781-1.247-.781-2.015v-4.285c0-1.505 1.125-2.812 2.664-2.939l4.086-.169 3.75.142v-1.005c0-1.272-.899-2.335-2.106-2.492-2.011-.261-4.061-.396-6.143-.396s-4.133.135-6.144.396c-1.207.157-2.106 1.22-2.106 2.492v6.225c0 1.272.899 2.335 2.106 2.492l1.713.191a.75.75 0 0 1 .681.747v2.898l2.281-2.281zM23.75 17l-3.962.164c-.723.06-1.288.68-1.288 1.445v4.285c0 .561.308 1.05.758 1.29.16.085.339.14.534.156l3.959.161a.75.75 0 0 1 .53.22l1.72 1.72v-1.28a.75.75 0 0 1 .705-.749l1.004-.071c.724-.059 1.291-.68 1.291-1.445v-4.286c0-.651-.413-1.201-.98-1.383a1.38 1.38 0 0 0-.308-.061L23.75 17z" fill="#60f"/></svg>