<svg xmlns="http://www.w3.org/2000/svg" width="20" height="20" fill="none" xmlns:v="https://vecta.io/nano"><path fill-rule="evenodd" d="M10 3.125c-3.797 0-6.875 3.078-6.875 6.875S6.203 16.875 10 16.875s6.875-3.078 6.875-6.875S13.797 3.125 10 3.125zM1.875 10c0-4.487 3.638-8.125 8.125-8.125S18.125 5.513 18.125 10 14.487 18.125 10 18.125 1.875 14.487 1.875 10zM10 4.375c.345 0 .625.28.625.625v4.375h3.125c.345 0 .625.28.625.625s-.28.625-.625.625H10c-.345 0-.625-.28-.625-.625V5c0-.345.28-.625.625-.625z" fill="#8533ff"/></svg>