<svg xmlns="http://www.w3.org/2000/svg" width="20" height="20" fill="none" xmlns:v="https://vecta.io/nano"><path fill-rule="evenodd" d="M11.082 3.127a1.25 1.25 0 0 0-2.166 0L2.788 13.75a1.25 1.25 0 0 0 1.083 1.875h12.257a1.25 1.25 0 0 0 1.083-1.875L11.082 3.127zm-3.248-.625c.962-1.668 3.369-1.668 4.331 0l6.129 10.623c.961 1.667-.241 3.749-2.166 3.749H3.871c-1.924 0-3.127-2.083-2.165-3.749L7.834 2.503zM10 6.875c.345 0 .625.28.625.625v3.125c0 .345-.28.625-.625.625s-.625-.28-.625-.625V7.5c0-.345.28-.625.625-.625zm-.625 6.25c0-.345.28-.625.625-.625h.006c.345 0 .625.28.625.625v.006c0 .345-.28.625-.625.625H10c-.345 0-.625-.28-.625-.625v-.006z" fill="#f58f0a"/></svg>