<svg xmlns="http://www.w3.org/2000/svg" width="56" height="56" fill="none" xmlns:v="https://vecta.io/nano"><rect width="56" height="56" rx="28" fill="#f6f0ff"/><g clip-path="url(#A)" fill="#a970ff"><path d="M21.333 18.526V40h-2.667V16h4v2.526h-1.333z"/><path fill-rule="evenodd" d="M25.571 14.997l10.667 1.933c.634.115 1.096.667 1.096 1.312v19.517c0 .645-.461 1.197-1.096 1.312l-10.667 1.933c-.725.131-1.418-.35-1.55-1.074-.014-.078-.021-.158-.021-.238V16.309c0-.736.597-1.333 1.333-1.333.08 0 .159.007.238.021zm2.318 14.211c.921 0 1.667-.811 1.667-1.812s-.746-1.812-1.667-1.812-1.667.811-1.667 1.812.746 1.812 1.667 1.812z"/></g><defs><clipPath id="A"><path fill="#fff" transform="translate(12 12)" d="M0 0h32v32H0z"/></clipPath></defs></svg>