<svg xmlns="http://www.w3.org/2000/svg" width="24" height="24" fill="none" xmlns:v="https://vecta.io/nano"><path d="M3.98 8.223c-.923 1.091-1.628 2.373-2.046 3.779C3.226 16.338 7.243 19.5 11.999 19.5c.992 0 1.953-.138 2.863-.395M6.228 6.228A10.45 10.45 0 0 1 12 4.5c4.756 0 8.773 3.162 10.065 7.499-.712 2.393-2.254 4.429-4.293 5.773M6.228 6.228L3 3m3.228 3.228l3.651 3.651m7.893 7.893L21 21m-3.228-3.228l-3.651-3.651m0 0A2.99 2.99 0 0 0 15 12a3 3 0 0 0-3-3 2.99 2.99 0 0 0-2.121.879m4.243 4.243L9.879 9.879" stroke="#9180ac" stroke-width="1.5" stroke-linecap="round" stroke-linejoin="round"/></svg>