<svg xmlns="http://www.w3.org/2000/svg" width="24" height="24" fill="none" xmlns:v="https://vecta.io/nano"><path fill-rule="evenodd" d="M12.001 5.25c-4.307 0-7.964 2.794-9.254 6.67-.018.053-.018.112 0 .165 1.291 3.874 4.947 6.665 9.252 6.665s7.964-2.794 9.254-6.67c.018-.053.018-.112 0-.165-1.291-3.874-4.947-6.665-9.252-6.665zM1.324 11.447C2.811 6.976 7.028 3.75 12.001 3.75s9.186 3.223 10.675 7.691a1.76 1.76 0 0 1 0 1.113c-1.487 4.471-5.705 7.697-10.677 7.697s-9.186-3.223-10.675-7.69a1.76 1.76 0 0 1 0-1.113zM12 9.75a2.25 2.25 0 1 0 0 4.5 2.25 2.25 0 1 0 0-4.5zM8.25 12a3.75 3.75 0 1 1 7.5 0 3.75 3.75 0 1 1-7.5 0z" fill="#9180ac"/></svg>