<svg xmlns="http://www.w3.org/2000/svg" width="24" height="24" fill="none" xmlns:v="https://vecta.io/nano"><path d="M6.655 14.003l-.668 2.495-2.443.052C2.814 15.196 2.4 13.646 2.4 12c0-1.592.387-3.093 1.073-4.415h.001l2.175.399.953 2.162c-.199.581-.308 1.205-.308 1.855a5.68 5.68 0 0 0 .362 2.003z" fill="#fbbb00"/><path d="M21.432 10.207c.11.581.168 1.181.168 1.793a9.62 9.62 0 0 1-.21 2.004 9.6 9.6 0 0 1-3.38 5.482h0l-2.739-.14-.388-2.42c1.122-.658 2-1.689 2.462-2.922h-5.133v-3.798h5.208 4.013z" fill="#518ef8"/><path d="M18.01 19.486v.001A9.56 9.56 0 0 1 12 21.6c-3.656 0-6.834-2.043-8.456-5.051l3.111-2.547c.811 2.164 2.898 3.704 5.345 3.704 1.052 0 2.037-.284 2.883-.781l3.127 2.56z" fill="#28b446"/><path d="M18.127 4.61l-3.11 2.546c-.875-.547-1.909-.863-3.018-.863a5.71 5.71 0 0 0-5.399 3.852l-3.127-2.56h-.001C5.071 4.505 8.289 2.4 12 2.4a9.56 9.56 0 0 1 6.128 2.21z" fill="#f14336"/></svg>