<svg xmlns="http://www.w3.org/2000/svg" width="20" height="20" fill="none" xmlns:v="https://vecta.io/nano"><g clip-path="url(#A)" fill="#756097"><path d="M10.003 4.865a5.132 5.132 0 1 0 0 10.263 5.132 5.132 0 1 0 0-10.263zm0 8.463a3.331 3.331 0 1 1 0-6.662 3.331 3.331 0 1 1 0 6.662zM14.124.063a134.72 134.72 0 0 0-8.239 0C4.266.139 2.839.529 1.688 1.68-.236 3.604.01 6.195.01 9.996c0 3.89-.217 6.422 1.678 8.316 1.931 1.93 4.56 1.677 8.316 1.677 3.853 0 5.183.003 6.546-.525 1.853-.719 3.251-2.375 3.388-5.349V5.876c-.165-3.511-2.049-5.64-5.813-5.813zm2.913 16.977c-1.261 1.261-3.01 1.148-7.057 1.148-4.167 0-5.837.062-7.057-1.161-1.404-1.398-1.15-3.642-1.15-7.044 0-4.604-.473-7.92 4.148-8.157l4.047-.05.038.025c4.441 0 7.925-.465 8.134 4.155l.058 4.039c-.001 4.118.078 5.799-1.162 7.044zM15.338 5.861a1.2 1.2 0 0 0 1.199-1.199 1.2 1.2 0 0 0-1.199-1.199 1.2 1.2 0 0 0-1.199 1.199 1.2 1.2 0 0 0 1.199 1.199z"/></g><defs><clipPath id="A"><path fill="#fff" d="M0 0h20v20H0z"/></clipPath></defs></svg>