<svg xmlns="http://www.w3.org/2000/svg" width="20" height="20" fill="none" xmlns:v="https://vecta.io/nano"><g clip-path="url(#A)" fill="#756097"><path d="M19.995 20.001L20 20v-7.335c0-3.588-.773-6.352-4.967-6.352-2.017 0-3.37 1.107-3.923 2.156h-.058V6.648H7.074V20h4.142v-6.612c0-1.741.33-3.424 2.486-3.424 2.124 0 2.156 1.987 2.156 3.536v6.501h4.138zM.33 6.648h4.147V20H.33V6.648zM2.402 0C1.076 0 0 1.076 0 2.402s1.076 2.424 2.402 2.424 2.402-1.098 2.402-2.424S3.727 0 2.402 0z"/></g><defs><clipPath id="A"><path fill="#fff" d="M0 0h20v20H0z"/></clipPath></defs></svg>