<?xml version="1.0" encoding="UTF-8" standalone="no"?>
<!-- Created with Keyshape -->
<svg xmlns="http://www.w3.org/2000/svg" width="64" height="64" viewBox="0 0 64 64" fill="none">
    <style>
@keyframes a0_t { 0% { transform: translate(32px,32px) rotate(0deg) translate(-32px,-32px); } 100% { transform: translate(32px,32px) rotate(1080deg) translate(-32px,-32px); } }
    </style>
    <path d="M59,32C59,35.5457,58.3016,39.0567,56.9447,42.3325C55.5879,45.6082,53.5991,48.5847,51.0919,51.0919C48.5847,53.5991,45.6082,55.5879,42.3324,56.9447C39.0567,58.3016,35.5457,59,32,59C28.4543,59,24.9433,58.3016,21.6675,56.9447C18.3918,55.5879,15.4153,53.5991,12.9081,51.0919C10.4009,48.5847,8.41213,45.6082,7.05525,42.3324C5.69837,39.0567,5,35.5457,5,32C5,28.4543,5.69838,24.9433,7.05526,21.6675C8.41213,18.3917,10.4009,15.4153,12.9081,12.9081C15.4153,10.4009,18.3918,8.41212,21.6676,7.05525C24.9434,5.69837,28.4543,5,32,5C35.5457,5,39.0567,5.69838,42.3325,7.05526C45.6083,8.41214,48.5847,10.4009,51.0919,12.9081C53.5991,15.4153,55.5879,18.3918,56.9448,21.6676C58.3016,24.9434,59,28.4543,59,32L59,32Z" stroke="#F6F0FF" stroke-width="8" stroke-linecap="round" stroke-linejoin="round" transform="translate(32,32) translate(-32,-32)"/>
    <path d="M12.9081,12.9081C15.921,9.89522,19.6042,7.63816,23.6565,6.32147C27.7089,5.00479,32.0153,4.66587,36.2237,5.33242C40.4322,5.99897,44.4231,7.65206,47.8702,10.1565C51.3173,12.661,54.1228,15.9458,56.0572,19.7423C57.9916,23.5387,59,27.7391,59,32C59,36.2609,57.9916,40.4613,56.0572,44.2577C54.1228,48.0542,51.3173,51.339,47.8702,53.8435C44.4231,56.3479,40.4321,58.001,36.2237,58.6676" stroke="#6600FF" stroke-width="8" stroke-linecap="round" stroke-linejoin="round" transform="translate(32,32) translate(-32,-32)" style="animation: 2s linear infinite both a0_t;"/>
</svg>
