<svg xmlns="http://www.w3.org/2000/svg" xmlns:xlink="http://www.w3.org/1999/xlink" width="135" height="32" fill="none" xmlns:v="https://vecta.io/nano"><g fill="#60f"><use xlink:href="#B"/><path d="M17.169 14.58v-3.352l.172.14c.962.836 1.129 1.589.125 2.843l-.298.368z"/><use xlink:href="#C"/><use xlink:href="#D"/></g><use xlink:href="#E" fill-rule="evenodd" fill="#fff"/><g fill="#60f"><use xlink:href="#B"/><path d="M17.169 14.58v-3.352l.172.14c.962.836 1.129 1.589.125 2.843l-.298.368z"/><use xlink:href="#C"/><use xlink:href="#D"/><use xlink:href="#E" fill-rule="evenodd"/></g><defs ><path id="B" d="M29.586 9.111c5.1 0 8.696 3.553 8.696 9.114v10.41c0 1.212-.669 1.923-1.923 1.923H32.93c-1.212 0-1.881-.711-1.881-1.923v-9.866c0-2.09-1.254-3.512-3.344-3.512-2.049 0-3.344 1.421-3.344 3.512v9.866c0 1.212-.711 1.923-1.923 1.923h-3.386c-.192 0-.37-.018-.535-.053 1.558-1.572 2.446-3.664 2.446-6.093 0-2.509-.918-4.493-2.459-6.012a9.78 9.78 0 0 0-.777-.687 4.67 4.67 0 0 0 .848-.841l.867-1.074.004-.005c.636-.795 1.337-1.944 1.221-3.366-.118-1.451-1.021-2.414-1.662-2.971l-.007-.006-.007-.006c-.524-.449-1.146-.844-1.821-1.185V3.3c0-1.212.669-1.714 1.881-1.923L22.395.75c1.254-.167 1.965.669 1.965 1.923v8.236c1.338-1.087 3.052-1.798 5.226-1.798z"/><path id="C" d="M17.169 28.21v-7.519c.796.971 1.259 2.171 1.259 3.721 0 1.491-.449 2.769-1.259 3.798z"/><path id="D" d="M57.107 11.369c.334-1.212-.335-1.547-1.045-1.798-.878-.293-1.881-.46-3.01-.46-2.299 0-4.264 1.212-5.727 3.261v-1.003c0-1.212-.669-1.923-1.881-1.923h-2.216c-1.212 0-1.881.711-1.881 1.923v17.266c0 1.212.669 1.923 1.881 1.923h3.47c1.212 0 1.881-.711 1.881-1.923v-9.323c0-2.467 1.338-4.097 3.804-4.097.711 0 1.505.209 2.174.418.711.293 1.421.042 1.756-1.129l.794-3.136z"/><path id="E" d="M132.967 30.516c1.212 0 2.007-.753 1.045-1.923l-6.94-9.49 6.564-7.776c.961-1.171.167-1.923-1.004-1.923h-4.264c-1.254 0-1.923.753-2.843 1.881l-5.267 6.647V2.631c0-1.254-.711-2.174-1.965-1.923l-3.345.627c-1.212.209-1.881.711-1.881 1.923v25.334c0 1.212.669 1.923 1.881 1.923h3.387c1.212 0 1.923-.711 1.923-1.923v-4.348l1.338-1.547 3.971 5.936c.795 1.171 1.589 1.881 2.843 1.881h4.557zm-76.474.042c-1.254 0-1.923-.711-1.923-1.923V18.242a3.53 3.53 0 0 0 2.243-.413c1.104-.617 1.664-1.677 1.936-2.628l.011-.037.798-3.151c.295-1.093.274-2.395-.607-3.491-.696-.866-1.665-1.206-2.018-1.33l-.049-.017-.021-.007c-.719-.24-1.485-.41-2.293-.504V3.3c0-1.212.669-1.714 1.923-1.923l3.386-.669c1.254-.251 1.965.669 1.965 1.923v26.003c0 1.212-.711 1.923-1.923 1.923h-3.428zm19.744.544c-6.773 0-11.664-4.682-11.664-10.995S69.464 9.111 76.236 9.111 87.9 13.794 87.9 20.106s-4.891 10.995-11.664 10.995zm0-6.187c2.634 0 4.515-2.049 4.515-4.808s-1.881-4.808-4.515-4.808-4.557 2.049-4.557 4.808 1.923 4.808 4.557 4.808zm25.511 6.187c-6.564 0-11.413-4.641-11.413-10.995s4.849-10.995 11.413-10.995c3.553 0 6.271 1.296 8.277 3.261.544.585.878 1.254-.041 2.174l-2.216 2.216c-.585.543-1.212.794-2.174-.084a5.16 5.16 0 0 0-3.553-1.38c-2.676 0-4.557 2.049-4.557 4.808s1.839 4.849 4.557 4.849c1.254 0 2.508-.46 3.553-1.421.962-.878 1.589-.627 2.174-.084l2.216 2.216c.919.92.585 1.589.041 2.174-2.006 1.965-4.724 3.261-8.277 3.261zm-92.14.042c-3.679 0-7.107-1.463-8.779-3.01-.962-.878-1.171-1.672-.167-2.801l1.003-1.212c.962-1.171 1.881-.836 2.801-.209 1.421 1.045 3.261 1.84 5.184 1.84 1.254 0 1.965-.46 1.965-1.254 0-1.003-1.296-1.463-2.634-1.923-3.721-1.129-7.901-2.467-7.901-6.898 0-4.055 3.344-6.605 8.57-6.605 3.01 0 6.229 1.045 7.692 2.299.962.836 1.129 1.589.125 2.843l-.878 1.087c-.711.92-1.714.92-2.676.335-1.171-.836-2.508-1.38-4.181-1.38-1.171 0-1.839.46-1.839 1.129 0 .81 1.155 1.193 2.901 1.772l1.656.569c3.428 1.338 5.978 3.052 5.978 6.689 0 4.222-3.595 6.731-8.821 6.731z"/></defs></svg>