<svg xmlns="http://www.w3.org/2000/svg" width="40" height="40" fill="none" xmlns:v="https://vecta.io/nano"><rect width="40" height="40" rx="8" fill="#d1fadf"/><path fill-rule="evenodd" d="M9.5 13.625c0-1.036.839-1.875 1.875-1.875h17.25c1.035 0 1.875.839 1.875 1.875v9.75c0 1.035-.84 1.875-1.875 1.875h-17.25c-1.036 0-1.875-.84-1.875-1.875v-9.75zm18 10.125h-15a1.5 1.5 0 0 0-1.5-1.5v-7.5a1.5 1.5 0 0 0 1.5-1.5h15a1.5 1.5 0 0 0 1.5 1.5v7.5a1.5 1.5 0 0 0-1.5 1.5zm-7.5-7.5a2.25 2.25 0 1 0 0 4.5 2.25 2.25 0 1 0 0-4.5zm-3.75 2.25a3.75 3.75 0 1 1 7.5 0 3.75 3.75 0 1 1-7.5 0zm-3 0a.75.75 0 0 1 .75-.75h.008a.75.75 0 0 1 .75.75v.008a.75.75 0 0 1-.75.75H14a.75.75 0 0 1-.75-.75V18.5zm12 0a.75.75 0 0 1 .75-.75h.008a.75.75 0 0 1 .75.75v.008a.75.75 0 0 1-.75.75H26a.75.75 0 0 1-.75-.75V18.5zM9.5 26.75a.75.75 0 0 1 .75-.75c5.534 0 10.897.74 15.994 2.128.264.072.506-.127.506-.373V26.75a.75.75 0 1 1 1.5 0v1.005c0 1.262-1.21 2.144-2.4 1.82a59.32 59.32 0 0 0-15.6-2.075.75.75 0 0 1-.75-.75z" fill="#039855"/></svg>