<svg xmlns="http://www.w3.org/2000/svg" width="104" height="19" fill="none" xmlns:v="https://vecta.io/nano"><rect width="104" height="19" rx="2" fill="#8533ff"/><path d="M9.255 9.73l1.864-3.583h1.391l-2.61 4.802V14H8.616v-3.002L6 6.147h1.402L9.255 9.73zm11.478.333a5.58 5.58 0 0 1-.231 1.654c-.15.494-.378.92-.682 1.278s-.686.628-1.144.822-.995.29-1.611.29c-.627 0-1.171-.097-1.633-.29a3.01 3.01 0 0 1-1.144-.827c-.301-.358-.526-.786-.677-1.284s-.226-1.049-.226-1.654c0-.809.133-1.515.398-2.116a3.06 3.06 0 0 1 1.219-1.407c.548-.337 1.239-.505 2.073-.505.816 0 1.495.167 2.036.5a3.07 3.07 0 0 1 1.214 1.407c.272.602.408 1.312.408 2.132zm-5.994 0c0 .605.082 1.13.247 1.574s.417.781.757 1.021.784.354 1.321.354.981-.118 1.321-.354.591-.58.752-1.021.242-.969.242-1.574c0-.92-.184-1.64-.553-2.159s-.949-.784-1.751-.784c-.537 0-.979.118-1.327.354s-.598.575-.763 1.015-.247.961-.247 1.574zm14.067-3.916v5.081c0 .548-.116 1.038-.349 1.472s-.576.777-1.042 1.031-1.051.376-1.756.376c-1.006 0-1.773-.263-2.299-.79s-.784-1.234-.784-2.111v-5.06h1.289v4.947c0 .655.154 1.139.462 1.45s.768.467 1.38.467c.422 0 .766-.073 1.031-.22a1.35 1.35 0 0 0 .591-.655c.129-.29.193-.639.193-1.047V6.147h1.284zm4.436 0c.677 0 1.235.082 1.676.247s.774.415.988.752.328.764.328 1.284c0 .387-.072.716-.215.988s-.331.498-.564.677-.482.322-.746.43L36.937 14h-1.456l-1.896-3.148h-1.262V14h-1.289V6.147h2.208zm-.086 1.074h-.833v2.567h.892c.598 0 1.031-.111 1.3-.333s.408-.55.408-.983c0-.455-.145-.777-.435-.967s-.73-.285-1.332-.285zm10.409-1.074c.677 0 1.235.082 1.676.247s.773.415.988.752.328.764.328 1.284c0 .387-.072.716-.215.988s-.331.498-.564.677-.482.322-.746.43L47.26 14h-1.456l-1.896-3.148h-1.262V14h-1.289V6.147h2.208zm-.086 1.074h-.833v2.567h.892c.598 0 1.031-.111 1.3-.333s.408-.55.408-.983c0-.455-.145-.777-.435-.967s-.73-.285-1.332-.285zM53.05 14h-4.447V6.147h4.447v1.085h-3.158v2.132h2.959v1.08h-2.959v2.465h3.158V14zm6.45-2.138c0 .466-.115.867-.344 1.203s-.551.594-.977.774-.927.268-1.515.268c-.286 0-.56-.016-.822-.048s-.508-.079-.741-.14a4.03 4.03 0 0 1-.628-.231v-1.214c.319.14.675.267 1.069.381s.795.167 1.203.167c.333 0 .609-.043.827-.129s.387-.215.494-.376.161-.356.161-.575c0-.233-.063-.43-.188-.591s-.315-.308-.569-.441-.566-.281-.945-.435a6.42 6.42 0 0 1-.741-.354c-.233-.133-.441-.288-.623-.467a2.02 2.02 0 0 1-.435-.634c-.104-.247-.156-.537-.156-.87 0-.444.106-.824.317-1.139a2.05 2.05 0 0 1 .902-.725c.39-.168.845-.252 1.364-.252a5.01 5.01 0 0 1 1.16.129 5.94 5.94 0 0 1 1.074.365l-.408 1.037c-.322-.132-.636-.238-.94-.317a3.63 3.63 0 0 0-.924-.118c-.272 0-.503.041-.693.124a.97.97 0 0 0-.435.349c-.097.147-.145.322-.145.526 0 .229.056.423.167.58s.29.295.526.424.548.272.924.43a6.67 6.67 0 0 1 1.101.564c.304.197.537.433.698.709s.242.614.242 1.026zm4.017-5.715c1.013 0 1.753.208 2.218.623s.698.997.698 1.746a2.93 2.93 0 0 1-.161.972 2.06 2.06 0 0 1-.516.811c-.24.233-.557.417-.951.553s-.872.204-1.445.204h-.838V14h-1.289V6.147h2.283zm-.086 1.069h-.908v2.766h.704c.405 0 .748-.047 1.031-.14s.498-.249.645-.457.22-.482.22-.822c0-.455-.138-.793-.414-1.015s-.698-.333-1.278-.333zm11.763 2.847a5.58 5.58 0 0 1-.231 1.654c-.15.494-.378.92-.682 1.278s-.686.628-1.144.822-.995.29-1.611.29c-.627 0-1.171-.097-1.633-.29a3.01 3.01 0 0 1-1.144-.827c-.301-.358-.526-.786-.677-1.284s-.226-1.049-.226-1.654c0-.809.133-1.515.398-2.116a3.06 3.06 0 0 1 1.219-1.407c.548-.337 1.239-.505 2.073-.505.816 0 1.495.167 2.036.5a3.07 3.07 0 0 1 1.214 1.407c.272.602.408 1.312.408 2.132zm-5.994 0c0 .605.082 1.13.247 1.574s.417.781.757 1.021.784.354 1.321.354.981-.118 1.321-.354.591-.58.752-1.021.242-.969.242-1.574c0-.92-.184-1.64-.553-2.159s-.949-.784-1.751-.784c-.537 0-.979.118-1.327.354s-.598.575-.763 1.015-.247.961-.247 1.574zM83.653 14h-1.584l-3.846-6.268h-.048l.038.671.032.73.027.763V14H77.1V6.147h1.574l3.84 6.225h.038l-.027-.629-.032-.73-.016-.736v-4.13h1.176V14zm6.816-2.138c0 .466-.115.867-.344 1.203s-.552.594-.978.774-.927.268-1.515.268c-.287 0-.56-.016-.822-.048a5.66 5.66 0 0 1-.741-.14c-.229-.064-.439-.141-.628-.231v-1.214a8.77 8.77 0 0 0 1.069.381c.394.111.795.167 1.203.167.333 0 .609-.043.827-.129s.387-.215.494-.376.161-.356.161-.575c0-.233-.063-.43-.188-.591s-.315-.308-.569-.441-.566-.281-.945-.435a6.43 6.43 0 0 1-.741-.354c-.233-.133-.44-.288-.623-.467a2.02 2.02 0 0 1-.435-.634c-.104-.247-.156-.537-.156-.87 0-.444.106-.824.317-1.139a2.05 2.05 0 0 1 .902-.725c.39-.168.845-.252 1.364-.252.412 0 .798.043 1.16.129a5.94 5.94 0 0 1 1.074.365l-.408 1.037c-.322-.132-.636-.238-.94-.317a3.63 3.63 0 0 0-.924-.118c-.272 0-.503.041-.693.124a.97.97 0 0 0-.435.349c-.097.147-.145.322-.145.526 0 .229.056.423.166.58s.29.295.526.424.548.272.924.43a6.67 6.67 0 0 1 1.101.564c.304.197.537.433.698.709s.242.614.242 1.026zM96.651 14h-4.447V6.147h4.447v1.085h-3.158v2.132h2.959v1.08h-2.959v2.465h3.158V14z" fill="#fff"/></svg>