<svg xmlns="http://www.w3.org/2000/svg" width="24" height="24" fill="none" xmlns:v="https://vecta.io/nano"><path fill-rule="evenodd" d="M5 3.75A1.25 1.25 0 0 0 3.75 5v14A1.25 1.25 0 0 0 5 20.25h1.25V13a.75.75 0 0 1 .75-.75h10a.75.75 0 0 1 .75.75v7.25H19A1.25 1.25 0 0 0 20.25 19V8.311L15.689 3.75H7.75v3.5H15a.75.75 0 1 1 0 1.5H7A.75.75 0 0 1 6.25 8V3.75H5zm0-1.5A2.75 2.75 0 0 0 2.25 5v14A2.75 2.75 0 0 0 5 21.75h14A2.75 2.75 0 0 0 21.75 19V8a.75.75 0 0 0-.22-.53l-5-5a.75.75 0 0 0-.53-.22H5zm11.25 18v-6.5h-8.5v6.5h8.5z" fill="#52387d"/></svg>