<svg xmlns="http://www.w3.org/2000/svg" width="106" height="100" fill="none" xmlns:v="https://vecta.io/nano"><g clip-path="url(#A)"><path d="M51.457 10.286c-1.759-1.016-4.187-.344-6.948 1.502.224-3.31-.409-5.749-2.174-6.768-5.45-3.146-17.254 9.788-25.521 24.106s-13.56 31.012-8.11 34.158c1.759 1.016 4.187.344 6.948-1.502-.224 3.31.408 5.749 2.174 6.768s4.187.344 6.948-1.502c-.224 3.31.409 5.749 2.174 6.768s4.187.344 6.948-1.502c-.224 3.31.408 5.749 2.174 6.768s4.187.344 6.948-1.502c-.224 3.31.408 5.749 2.174 6.768s4.188.344 6.948-1.502c-.224 3.31.408 5.749 2.174 6.768s4.188.344 6.948-1.502c-.224 3.31.408 5.749 2.174 6.768 5.45 3.146 17.254-9.788 25.521-24.106s13.566-31.008 8.116-34.155c-1.759-1.016-4.187-.344-6.948 1.502.224-3.31-.408-5.749-2.174-6.768s-4.187-.344-6.948 1.502c.224-3.31-.408-5.749-2.174-6.768s-4.187-.344-6.948 1.502c.224-3.31-.409-5.749-2.174-6.768s-4.187-.344-6.948 1.502c.224-3.31-.408-5.749-2.173-6.768s-4.187-.344-6.948 1.502c.224-3.31-.408-5.749-2.173-6.768l-.006-.003zM9.399 62.081c-3.623-2.092-1.021-15.55 8.625-32.256s20-25.689 23.622-23.598c1.345.777 1.827 3.12 1.413 6.617-5.498 4.306-11.992 12.661-17.127 21.555s-9.117 18.699-10.103 25.61c-2.821 2.107-5.098 2.858-6.437 2.085l.007-.012zm33.363-47.253c-1.117 5.897-4.311 14.265-9.73 23.652s-11.07 16.337-15.618 20.253c1.117-5.897 4.311-14.265 9.731-23.652s11.07-16.337 15.618-20.253zm53.601 22.981c3.623 2.092 1.021 15.55-8.625 32.256S67.728 95.757 64.111 93.669c-1.345-.777-1.827-3.121-1.413-6.617 5.498-4.306 11.992-12.661 17.127-21.555s9.117-18.699 10.103-25.61c2.821-2.107 5.098-2.858 6.437-2.085l-.003.006zM63 85.062c1.117-5.897 4.311-14.265 9.731-23.653S83.8 45.072 88.349 41.156c-1.117 5.897-4.311 14.265-9.731 23.652S67.548 81.146 63 85.062zm24.241-52.519c1.345.777 1.827 3.121 1.419 6.621-5.498 4.306-11.992 12.661-17.127 21.555s-9.117 18.699-10.103 25.61c-2.821 2.107-5.098 2.858-6.443 2.081s-1.827-3.121-1.413-6.617C59.071 77.486 65.565 69.13 70.7 60.237s9.117-18.699 10.103-25.61c2.821-2.107 5.098-2.858 6.437-2.085zM53.878 79.795c1.117-5.897 4.311-14.265 9.731-23.652S74.672 39.802 79.227 35.89c-1.117 5.897-4.311 14.265-9.731 23.652S58.433 75.883 53.878 79.795zm24.241-52.519c1.346.777 1.827 3.121 1.413 6.617-5.498 4.306-11.992 12.661-17.127 21.555s-9.117 18.699-10.103 25.61c-2.821 2.107-5.098 2.858-6.437 2.085s-1.827-3.12-1.413-6.617c5.498-4.306 11.992-12.661 17.127-21.555s9.117-18.699 10.103-25.61c2.821-2.107 5.098-2.858 6.437-2.085zM44.756 74.529c1.117-5.897 4.311-14.265 9.731-23.653S65.55 34.536 70.105 30.623c-1.117 5.897-4.311 14.265-9.731 23.652s-11.07 16.337-15.618 20.253zM68.997 22.01c1.346.777 1.827 3.121 1.419 6.621-5.498 4.306-11.992 12.661-17.127 21.555s-9.117 18.699-10.103 25.61c-2.821 2.107-5.098 2.858-6.443 2.081s-1.827-3.121-1.413-6.617c5.498-4.306 11.992-12.661 17.127-21.555s9.117-18.699 10.103-25.61c2.821-2.107 5.098-2.858 6.437-2.085zM35.634 69.262c1.117-5.897 4.311-14.265 9.731-23.652s11.064-16.341 15.618-20.253c-1.117 5.897-4.311 14.265-9.73 23.653s-11.07 16.337-15.618 20.253zm24.241-52.519c1.346.777 1.827 3.121 1.413 6.617-5.498 4.306-11.992 12.661-17.127 21.555s-9.117 18.699-10.103 25.61c-2.821 2.107-5.098 2.858-6.437 2.085s-1.827-3.12-1.413-6.617c5.498-4.306 11.992-12.661 17.127-21.555s9.117-18.699 10.103-25.61c2.821-2.107 5.098-2.858 6.437-2.085zM26.512 63.996c1.117-5.897 4.311-14.265 9.731-23.652s11.07-16.337 15.618-20.253c-1.117 5.897-4.311 14.265-9.73 23.653S31.061 60.08 26.512 63.996zm25.66-45.898c-5.494 4.3-11.992 12.661-17.127 21.555s-9.117 18.699-10.103 25.61c-2.821 2.107-5.098 2.858-6.437 2.085s-1.827-3.12-1.413-6.617c5.498-4.306 11.992-12.661 17.127-21.555s9.117-18.699 10.103-25.61c2.821-2.107 5.098-2.858 6.437-2.085s1.827 3.121 1.413 6.617z" fill="#f2eaff"/></g><defs><clipPath id="A"><path fill="#fff" transform="matrix(.5 -.866025 .866025 .5 0 58.261)" d="M0 0h67.274v83.273H0z"/></clipPath></defs></svg>