<svg xmlns="http://www.w3.org/2000/svg" width="28" height="28" fill="none" xmlns:v="https://vecta.io/nano"><path fill-rule="evenodd" d="M15.515 4.378c-.674-1.167-2.358-1.167-3.032 0l-8.58 14.872c-.673 1.167.169 2.625 1.516 2.625h17.16c1.347 0 2.189-1.458 1.516-2.625l-8.58-14.872zm-4.547-.875c1.347-2.335 4.716-2.335 6.063 0l8.58 14.872c1.346 2.333-.338 5.249-3.032 5.249H5.419c-2.694 0-4.378-2.916-3.032-5.249l8.58-14.872zm3.032 6.121c.483 0 .875.392.875.875v4.375c0 .483-.392.875-.875.875s-.875-.392-.875-.875V10.5c0-.483.392-.875.875-.875zm-.875 8.75c0-.483.392-.875.875-.875h.009c.483 0 .875.392.875.875v.009c0 .483-.392.875-.875.875h-.009c-.483 0-.875-.392-.875-.875v-.009z" fill="#f58f0a"/></svg>